<svg width="373" height="101" viewBox="0 0 373 101" fill="none" xmlns="http://www.w3.org/2000/svg">
<path d="M352.536 84.8402C338.548 84.8402 330.303 76.0765 330.303 61.2257C330.303 46.6339 338.721 37.2227 351.931 37.2227C364.451 37.2227 372.999 46.1159 372.999 58.5491C372.999 61.7437 371.186 63.6432 367.991 63.6432H341.009V63.9886C341.009 71.6299 345.456 76.5513 352.449 76.5513C357.285 76.5513 360.436 74.8677 363.89 70.4642C365.012 69.2123 366.005 68.7374 367.516 68.7374C369.934 68.7374 371.833 70.2916 371.833 72.8818C371.833 73.7021 371.574 74.6518 371.099 75.6016C368.077 81.4297 361.256 84.8402 352.536 84.8402ZM341.095 56.5632H362.465C362.249 49.9149 358.018 45.5546 351.975 45.5546C345.931 45.5546 341.527 50.0012 341.095 56.5632Z" fill="white"/>
<path d="M306.344 72.6243V46.4627H295.696C293.019 46.4627 291.379 44.8654 291.379 42.2752C291.379 39.7281 293.019 38.1739 295.696 38.1739H306.344V32.0868C306.344 28.6332 308.417 26.4746 311.741 26.4746C315.022 26.4746 317.094 28.6332 317.094 32.0868V38.1739H322.059C324.735 38.1739 326.376 39.7281 326.376 42.2752C326.376 44.8654 324.735 46.4627 322.059 46.4627H317.094V70.2931C317.094 73.7467 318.303 75.2577 321.411 75.5167L322.188 75.6031C325.037 75.8621 326.505 77.0709 326.505 79.5748C326.505 82.7263 323.742 84.4099 318.821 84.4099H318.389C310.402 84.4099 306.344 80.4382 306.344 72.6243Z" fill="white"/>
<path d="M278.633 72.6243V46.4627H275.741C273.064 46.4627 271.424 44.8654 271.424 42.2752C271.424 39.7281 273.064 38.1739 275.741 38.1739H278.633V32.0868C278.633 28.6332 280.706 26.4746 284.03 26.4746C287.311 26.4746 289.383 28.6332 289.383 32.0868V38.1739H294.348C297.024 38.1739 298.665 39.7281 298.665 42.2752C298.665 44.8654 297.024 46.4627 294.348 46.4627H289.383V70.2931C289.383 73.7467 290.592 75.2577 293.7 75.5167L294.477 75.6031C297.326 75.8621 298.794 77.0709 298.794 79.5748C298.794 82.7263 296.031 84.4099 291.11 84.4099H290.678C282.691 84.4099 278.633 80.4382 278.633 72.6243Z" fill="white"/>
<path d="M248.241 84.8402C234.253 84.8402 226.008 76.0765 226.008 61.2257C226.008 46.6339 234.426 37.2227 247.636 37.2227C260.156 37.2227 268.704 46.1159 268.704 58.5491C268.704 61.7437 266.891 63.6432 263.696 63.6432H236.714V63.9886C236.714 71.6299 241.161 76.5513 248.154 76.5513C252.99 76.5513 256.141 74.8677 259.595 70.4642C260.717 69.2123 261.71 68.7374 263.221 68.7374C265.639 68.7374 267.538 70.2916 267.538 72.8818C267.538 73.7021 267.279 74.6518 266.804 75.6016C263.782 81.4297 256.961 84.8402 248.241 84.8402ZM236.801 56.5632H258.17C257.954 49.9149 253.724 45.5546 247.68 45.5546C241.636 45.5546 237.232 50.0012 236.801 56.5632Z" fill="white"/>
<path d="M189.916 84.7978C186.764 84.7978 184.52 82.7688 184.52 79.1424V26.4308C184.52 22.8044 186.764 20.7754 189.916 20.7754C193.067 20.7754 195.269 22.8044 195.269 26.4308V57.0821H195.399L213.358 39.3389C214.739 37.8711 215.905 37.2667 217.545 37.2667C220.222 37.2667 222.251 39.2957 222.251 41.886C222.251 43.4833 221.776 44.4762 220.308 45.8577L207.271 58.2046L221.603 76.1205C222.726 77.6746 223.071 78.6244 223.071 80.0059C223.071 82.812 220.956 84.7978 217.977 84.7978C215.862 84.7978 214.61 84.0639 213.055 81.819L199.327 64.4212L195.269 68.2202V79.1424C195.269 82.7688 193.067 84.7978 189.916 84.7978Z" fill="white"/>
<path d="M159.179 84.7987C155.942 84.7987 153.826 82.6834 153.826 79.1433V42.7071C153.826 39.3398 155.898 37.2676 158.964 37.2676C161.942 37.2676 164.058 39.3398 164.058 42.7071V46.204H164.274C165.525 40.8508 169.497 37.3971 174.073 37.3971C175.757 37.3971 177.052 37.8288 177.872 38.5627C178.865 39.383 179.383 40.6781 179.383 42.4481C179.383 44.1318 178.865 45.3837 177.786 46.2471C176.75 47.1537 175.153 47.6286 173.037 47.6718C166.907 47.7149 164.576 51.5571 164.576 57.1262V79.1433C164.576 82.6834 162.417 84.7987 159.179 84.7987Z" fill="white"/>
<path d="M120.282 84.6675C111.432 84.6675 105 79.0984 105 70.8528C105 62.7367 111.26 57.8583 122.398 57.1676L134.529 56.4769V53.1959C134.529 48.4039 131.291 45.641 125.981 45.641C121.793 45.641 119.074 47.0656 116.397 50.9942C115.275 52.462 113.85 53.1527 112.037 53.1527C109.403 53.1527 107.504 51.4259 107.504 48.8356C107.504 47.8427 107.763 46.8929 108.238 45.9C110.569 40.59 117.649 37.2227 126.413 37.2227C137.767 37.2227 145.149 43.2234 145.149 52.4188V79.4006C145.149 82.8543 142.947 84.797 139.925 84.797C136.99 84.797 134.961 83.027 134.788 79.8323V76.6377H134.572C131.939 81.6023 126.197 84.6675 120.282 84.6675ZM123.563 76.5513C129.607 76.5513 134.529 72.4933 134.529 66.9674V63.4706L123.909 64.1181C118.728 64.4635 115.75 66.7947 115.75 70.4211C115.75 74.1769 118.901 76.5513 123.563 76.5513Z" fill="white"/>
<path fill-rule="evenodd" clip-rule="evenodd" d="M50.1809 100.362C77.8951 100.362 100.362 77.8951 100.362 50.1809C100.362 22.4668 77.8951 0 50.1809 0C22.4668 0 0 22.4668 0 50.1809C0 77.8951 22.4668 100.362 50.1809 100.362ZM46.4355 63.9232V82.1413H30.5918V19.8457H38.5784H46.4355H57.1419C61.7756 19.8457 65.8049 20.7667 69.2298 22.6086C72.6546 24.4218 75.3025 26.9833 77.1732 30.2931C79.0727 33.574 80.0225 37.445 80.0225 41.906V41.9924C80.0225 46.4246 79.0727 50.2956 77.1732 53.6053C75.3025 56.8863 72.6546 59.4334 69.2298 61.2466C65.8049 63.031 61.7756 63.9232 57.1419 63.9232H46.4355ZM46.4355 51.9217H53.3429C56.6814 51.9217 59.2861 51.0727 61.1568 49.3746C63.0563 47.6765 64.0061 45.2158 64.0061 41.9924V41.906C64.0061 38.6538 63.0563 36.1931 61.1568 34.5238C59.2861 32.8545 56.6814 32.0199 53.3429 32.0199H46.4355V51.9217Z" fill="white"/>
</svg>
